<?xml version="1.0" encoding="UTF-8" standalone="no"?>
<!-- Created with Inkscape (http://www.inkscape.org/) -->

<svg
   xmlns:dc="http://purl.org/dc/elements/1.1/"
   xmlns:cc="http://creativecommons.org/ns#"
   xmlns:rdf="http://www.w3.org/1999/02/22-rdf-syntax-ns#"
   xmlns:svg="http://www.w3.org/2000/svg"
   xmlns="http://www.w3.org/2000/svg"
   xmlns:xlink="http://www.w3.org/1999/xlink"
   xmlns:sodipodi="http://sodipodi.sourceforge.net/DTD/sodipodi-0.dtd"
   xmlns:inkscape="http://www.inkscape.org/namespaces/inkscape"
   width="512"
   height="512"
   viewBox="0 0 135.46666 135.46667"
   version="1.1"
   id="svg8"
   inkscape:export-filename="/home/george/Computer/Development/c++/KDE/quickaccess/icons/qa.png"
   inkscape:export-xdpi="96"
   inkscape:export-ydpi="96"
   sodipodi:docname="512-apps-quickaccess.svg"
   inkscape:version="0.92.4 5da689c313, 2019-01-14">
  <defs
     id="defs2">
    <linearGradient
       id="linearGradient846"
       inkscape:collect="always">
      <stop
         id="stop842"
         offset="0"
         style="stop-color:#007aa6;stop-opacity:1" />
      <stop
         id="stop844"
         offset="1"
         style="stop-color:#006571;stop-opacity:1" />
    </linearGradient>
    <linearGradient
       inkscape:collect="always"
       id="linearGradient835">
      <stop
         style="stop-color:#caf6f6;stop-opacity:1;"
         offset="0"
         id="stop831" />
      <stop
         style="stop-color:#caf6f6;stop-opacity:0;"
         offset="1"
         id="stop833" />
    </linearGradient>
    <linearGradient
       inkscape:collect="always"
       id="linearGradient4685">
      <stop
         style="stop-color:#ff0000;stop-opacity:1;"
         offset="0"
         id="stop4681" />
      <stop
         style="stop-color:#ff0000;stop-opacity:0;"
         offset="1"
         id="stop4683" />
    </linearGradient>
    <linearGradient
       inkscape:collect="always"
       id="linearGradient972">
      <stop
         style="stop-color:#125073;stop-opacity:1"
         offset="0"
         id="stop968" />
      <stop
         style="stop-color:#1c9bc0;stop-opacity:0.38"
         offset="1"
         id="stop970" />
    </linearGradient>
    <linearGradient
       inkscape:collect="always"
       id="linearGradient964">
      <stop
         style="stop-color:#125073;stop-opacity:1"
         offset="0"
         id="stop960" />
      <stop
         style="stop-color:#1c9bc0;stop-opacity:0.38"
         offset="1"
         id="stop962" />
    </linearGradient>
    <linearGradient
       inkscape:collect="always"
       xlink:href="#linearGradient964"
       id="linearGradient966"
       x1="1.9340383"
       y1="280.06665"
       x2="31.932629"
       y2="280.06665"
       gradientUnits="userSpaceOnUse" />
    <linearGradient
       inkscape:collect="always"
       xlink:href="#linearGradient972"
       id="linearGradient974"
       x1="1.9340383"
       y1="280.06665"
       x2="31.932629"
       y2="280.06665"
       gradientUnits="userSpaceOnUse" />
    <linearGradient
       inkscape:collect="always"
       xlink:href="#linearGradient4685"
       id="linearGradient4687"
       x1="5.7535677"
       y1="280.06665"
       x2="28.113098"
       y2="280.06665"
       gradientUnits="userSpaceOnUse" />
    <linearGradient
       inkscape:collect="always"
       xlink:href="#linearGradient835"
       id="linearGradient837"
       x1="5.0879374"
       y1="280.06665"
       x2="28.778728"
       y2="280.06665"
       gradientUnits="userSpaceOnUse" />
    <linearGradient
       inkscape:collect="always"
       xlink:href="#linearGradient846"
       id="linearGradient840"
       x1="66.424911"
       y1="283.63712"
       x2="67.733177"
       y2="169.32491"
       gradientUnits="userSpaceOnUse" />
  </defs>
  <sodipodi:namedview
     id="base"
     pagecolor="#ffffff"
     bordercolor="#666666"
     borderopacity="1.0"
     inkscape:pageopacity="0.0"
     inkscape:pageshadow="2"
     inkscape:zoom="0.99989318"
     inkscape:cx="-195.13023"
     inkscape:cy="223.5737"
     inkscape:document-units="px"
     inkscape:current-layer="layer1"
     showgrid="false"
     showborder="true"
     units="px"
     inkscape:window-width="1920"
     inkscape:window-height="991"
     inkscape:window-x="0"
     inkscape:window-y="0"
     inkscape:window-maximized="1" />
  <metadata
     id="metadata5">
    <rdf:RDF>
      <cc:Work
         rdf:about="">
        <dc:format>image/svg+xml</dc:format>
        <dc:type
           rdf:resource="http://purl.org/dc/dcmitype/StillImage" />
        <dc:title />
      </cc:Work>
    </rdf:RDF>
  </metadata>
  <g
     inkscape:label="Layer 1"
     inkscape:groupmode="layer"
     id="layer1"
     transform="translate(0,-161.53332)">
    <ellipse
       style="opacity:1;fill:url(#linearGradient840);fill-opacity:1;stroke:none;stroke-width:4.76530886;stroke-miterlimit:4;stroke-dasharray:none;stroke-opacity:1"
       id="path848"
       cx="65.88829"
       cy="225.42255"
       rx="49.210361"
       ry="48.019611" />
    <g
       aria-label="Q"
       transform="scale(1.0495153,0.9528208)"
       style="font-style:normal;font-variant:normal;font-weight:normal;font-stretch:normal;font-size:44.57515335px;line-height:1.25;font-family:Garuda;-inkscape-font-specification:Garuda;letter-spacing:0px;word-spacing:0px;fill:#9ce4ff;fill-opacity:1;stroke:#1e3b4e;stroke-width:1.11437869;stroke-opacity:1"
       id="text956">
      <path
         d="m 7.4146737,237.10485 q 0,-27.62173 15.0366833,-44.12939 15.200126,-16.50767 41.023996,-16.50767 26.150755,0 41.023997,16.18078 14.87324,16.18078 14.87324,44.45628 0,29.09272 -17.8152,46.09071 10.29686,7.02801 20.10339,10.78718 l -4.57638,10.78719 q -11.93128,-4.08605 -25.333543,-14.21947 -12.911935,7.19146 -28.76583,7.19146 -25.006659,0 -40.370227,-16.50767 -15.2001263,-16.6711 -15.2001263,-44.1294 z m 15.5270103,0 q 0,21.57438 10.623744,34.32287 10.787186,12.58505 29.909925,12.58505 9.806533,0 15.527011,-2.77852 -7.681784,-4.73982 -15.200126,-6.53769 l 3.922613,-11.27751 q 12.911935,3.92261 21.901257,11.27751 14.219472,-13.23882 14.219472,-37.59171 0,-21.24748 -10.787186,-33.99598 -10.623744,-12.91193 -29.583041,-12.91193 -18.959297,0 -29.746483,12.42161 -10.787186,12.4216 -10.787186,34.4863 z"
         style="font-style:normal;font-variant:normal;font-weight:normal;font-stretch:normal;font-size:163.44221497px;font-family:Garuda;-inkscape-font-specification:Garuda;fill:#9ce4ff;fill-opacity:1;stroke:#1e3b4e;stroke-width:1.11437869;stroke-opacity:1"
         id="path840" />
    </g>
    <g
       aria-label="a"
       style="font-style:normal;font-weight:normal;font-size:49.19931793px;line-height:1.25;font-family:sans-serif;letter-spacing:0px;word-spacing:0px;fill:#9ce4ff;fill-opacity:1;stroke:#1e3b4e;stroke-width:1.22998297;stroke-opacity:1"
       id="text4750">
      <path
         d="m 67.654615,206.45707 q -5.03801,0 -7.320859,1.81053 -2.204129,1.73182 -3.463632,5.98264 l -6.612388,-0.94463 q 2.597724,-12.5163 18.341506,-12.5163 8.65908,0 12.201431,3.22747 3.62107,3.14876 3.62107,12.20143 v 17.94792 q 0,4.32954 2.12541,8.3442 h -7.16342 q -1.023346,-2.20413 -1.338222,-5.03801 -7.163421,5.98264 -15.114031,5.98264 -6.140075,0 -10.07602,-3.07004 -3.935946,-3.14876 -3.935946,-8.58036 0,-6.29751 5.903919,-10.07602 2.519005,-1.6531 10.863209,-2.83388 8.344205,-1.25951 11.729118,-2.44029 v -1.73182 q 0,-8.26548 -9.761145,-8.26548 z m -2.991319,31.33013 q 12.752464,0 12.752464,-13.22478 v -2.44029 q -2.597724,1.10207 -8.65908,2.04669 -5.982638,0.86591 -9.44627,2.44029 -3.384913,1.49566 -3.384913,4.95929 0,6.2188 8.737799,6.2188 z"
         style="font-style:normal;font-variant:normal;font-weight:normal;font-stretch:normal;font-size:78.71891022px;font-family:Garuda;-inkscape-font-specification:Garuda;fill:#9ce4ff;fill-opacity:1;stroke:#1e3b4e;stroke-width:1.22998297;stroke-opacity:1"
         id="path843" />
    </g>
  </g>
</svg>
