<svg width="512" height="512" version="1.1" viewBox="0 0 135.46666 135.46667" xmlns="http://www.w3.org/2000/svg" xmlns:xlink="http://www.w3.org/1999/xlink">
    <defs>
        <linearGradient id="linearGradient840" x1="66.424911" x2="67.733177" y1="283.63712" y2="169.32491" gradientUnits="userSpaceOnUse">
            <stop stop-color="#007aa6" offset="0"/>
            <stop stop-color="#006571" offset="1"/>
        </linearGradient>
    </defs>
    <g transform="translate(0,-161.53332)">
        <ellipse cx="65.88829" cy="225.42255" rx="49.210361" ry="48.019611" fill="url(#linearGradient840)"/>
        <g transform="scale(1.0495153 .9528208)" fill="#9ce4ff" stroke="#1e3b4e" stroke-width="1.1143787" aria-label="Q">
            <path d="m7.4146737 237.10485q0-27.62173 15.036683-44.12939 15.200126-16.50767 41.023996-16.50767 26.150755 0 41.023997 16.18078 14.87324 16.18078 14.87324 44.45628 0 29.09272-17.8152 46.09071 10.29686 7.02801 20.10339 10.78718l-4.57638 10.78719q-11.93128-4.08605-25.333543-14.21947-12.911935 7.19146-28.76583 7.19146-25.006659 0-40.370227-16.50767-15.200126-16.6711-15.200126-44.1294zm15.52701 0q0 21.57438 10.623744 34.32287 10.787186 12.58505 29.909925 12.58505 9.806533 0 15.527011-2.77852-7.681784-4.73982-15.200126-6.53769l3.922613-11.27751q12.911935 3.92261 21.901257 11.27751 14.219472-13.23882 14.219472-37.59171 0-21.24748-10.787186-33.99598-10.623744-12.91193-29.583041-12.91193t-29.746483 12.42161q-10.787186 12.4216-10.787186 34.4863z" fill="#9ce4ff" stroke="#1e3b4e" stroke-width="1.1143787"/>
        </g>
        <g fill="#9ce4ff" stroke="#1e3b4e" stroke-width="1.229983" aria-label="a">
            <path d="m67.654615 206.45707q-5.03801 0-7.320859 1.81053-2.204129 1.73182-3.463632 5.98264l-6.612388-0.94463q2.597724-12.5163 18.341506-12.5163 8.65908 0 12.201431 3.22747 3.62107 3.14876 3.62107 12.20143v17.94792q0 4.32954 2.12541 8.3442h-7.16342q-1.023346-2.20413-1.338222-5.03801-7.163421 5.98264-15.114031 5.98264-6.140075 0-10.07602-3.07004-3.935946-3.14876-3.935946-8.58036 0-6.29751 5.903919-10.07602 2.519005-1.6531 10.863209-2.83388 8.344205-1.25951 11.729118-2.44029v-1.73182q0-8.26548-9.761145-8.26548zm-2.991319 31.33013q12.752464 0 12.752464-13.22478v-2.44029q-2.597724 1.10207-8.65908 2.04669-5.982638 0.86591-9.44627 2.44029-3.384913 1.49566-3.384913 4.95929 0 6.2188 8.737799 6.2188z" fill="#9ce4ff" stroke="#1e3b4e" stroke-width="1.229983"/>
        </g>
    </g>
</svg>
